%TF.GenerationSoftware,KiCad,Pcbnew,(5.1.10)-1*%
%TF.CreationDate,2021-11-01T22:25:46+02:00*%
%TF.ProjectId,V1,56312e6b-6963-4616-945f-706362585858,rev?*%
%TF.SameCoordinates,Original*%
%TF.FileFunction,Legend,Top*%
%TF.FilePolarity,Positive*%
%FSLAX46Y46*%
G04 Gerber Fmt 4.6, Leading zero omitted, Abs format (unit mm)*
G04 Created by KiCad (PCBNEW (5.1.10)-1) date 2021-11-01 22:25:46*
%MOMM*%
%LPD*%
G01*
G04 APERTURE LIST*
%ADD10C,0.150000*%
%ADD11C,0.650000*%
%ADD12O,1.000000X2.100000*%
%ADD13O,1.000000X1.600000*%
%ADD14C,3.987800*%
%ADD15C,1.750000*%
G04 APERTURE END LIST*
D10*
X100116071Y-62158630D02*
X100306547Y-62158630D01*
X100401785Y-62206250D01*
X100497023Y-62301488D01*
X100544642Y-62491964D01*
X100544642Y-62825297D01*
X100497023Y-63015773D01*
X100401785Y-63111011D01*
X100306547Y-63158630D01*
X100116071Y-63158630D01*
X100020833Y-63111011D01*
X99925595Y-63015773D01*
X99877976Y-62825297D01*
X99877976Y-62491964D01*
X99925595Y-62301488D01*
X100020833Y-62206250D01*
X100116071Y-62158630D01*
X100973214Y-63158630D02*
X100973214Y-62158630D01*
X101068452Y-62777678D02*
X101354166Y-63158630D01*
X101354166Y-62491964D02*
X100973214Y-62872916D01*
X102830357Y-62587202D02*
X102925595Y-62634821D01*
X102973214Y-62682440D01*
X103020833Y-62777678D01*
X103020833Y-62968154D01*
X102973214Y-63063392D01*
X102925595Y-63111011D01*
X102830357Y-63158630D01*
X102687500Y-63158630D01*
X102592261Y-63111011D01*
X102544642Y-63063392D01*
X102449404Y-63491964D02*
X102497023Y-63444345D01*
X102544642Y-63349107D01*
X102544642Y-62301488D01*
X102592261Y-62206250D01*
X102687500Y-62158630D01*
X102830357Y-62158630D01*
X102925595Y-62206250D01*
X102973214Y-62301488D01*
X102973214Y-62444345D01*
X102925595Y-62539583D01*
X102830357Y-62587202D01*
X102735119Y-62587202D01*
X103877976Y-62491964D02*
X103877976Y-63158630D01*
X103449404Y-62491964D02*
X103449404Y-63015773D01*
X103497023Y-63111011D01*
X103592261Y-63158630D01*
X103735119Y-63158630D01*
X103830357Y-63111011D01*
X103877976Y-63063392D01*
X104782738Y-63158630D02*
X104782738Y-62158630D01*
X104782738Y-63111011D02*
X104687500Y-63158630D01*
X104497023Y-63158630D01*
X104401785Y-63111011D01*
X104354166Y-63063392D01*
X104306547Y-62968154D01*
X104306547Y-62682440D01*
X104354166Y-62587202D01*
X104401785Y-62539583D01*
X104497023Y-62491964D01*
X104687500Y-62491964D01*
X104782738Y-62539583D01*
X105687500Y-63158630D02*
X105687500Y-62158630D01*
X105687500Y-63111011D02*
X105592261Y-63158630D01*
X105401785Y-63158630D01*
X105306547Y-63111011D01*
X105258928Y-63063392D01*
X105211309Y-62968154D01*
X105211309Y-62682440D01*
X105258928Y-62587202D01*
X105306547Y-62539583D01*
X105401785Y-62491964D01*
X105592261Y-62491964D01*
X105687500Y-62539583D01*
X106068452Y-62491964D02*
X106306547Y-63158630D01*
X106544642Y-62491964D02*
X106306547Y-63158630D01*
X106211309Y-63396726D01*
X106163690Y-63444345D01*
X106068452Y-63491964D01*
%LPC*%
D11*
%TO.C,USB1*%
X106077500Y-64193750D03*
X100297500Y-64193750D03*
D12*
X98867500Y-64723750D03*
X107507500Y-64723750D03*
D13*
X98867500Y-60543750D03*
X107507500Y-60543750D03*
%TD*%
D14*
%TO.C,MX12*%
X122237500Y-134143750D03*
D15*
X117157500Y-134143750D03*
X127317500Y-134143750D03*
%TD*%
D14*
%TO.C,MX11*%
X103187500Y-134143750D03*
D15*
X98107500Y-134143750D03*
X108267500Y-134143750D03*
%TD*%
D14*
%TO.C,MX10*%
X84137500Y-134143750D03*
D15*
X79057500Y-134143750D03*
X89217500Y-134143750D03*
%TD*%
D14*
%TO.C,MX9*%
X65087500Y-134143750D03*
D15*
X60007500Y-134143750D03*
X70167500Y-134143750D03*
%TD*%
D14*
%TO.C,MX8*%
X122237500Y-115093750D03*
D15*
X117157500Y-115093750D03*
X127317500Y-115093750D03*
%TD*%
D14*
%TO.C,MX7*%
X103187500Y-115093750D03*
D15*
X98107500Y-115093750D03*
X108267500Y-115093750D03*
%TD*%
D14*
%TO.C,MX6*%
X84137500Y-115093750D03*
D15*
X79057500Y-115093750D03*
X89217500Y-115093750D03*
%TD*%
D14*
%TO.C,MX5*%
X65087500Y-115093750D03*
D15*
X60007500Y-115093750D03*
X70167500Y-115093750D03*
%TD*%
D14*
%TO.C,MX4*%
X122237500Y-96043750D03*
D15*
X117157500Y-96043750D03*
X127317500Y-96043750D03*
%TD*%
D14*
%TO.C,MX3*%
X103187500Y-96043750D03*
D15*
X98107500Y-96043750D03*
X108267500Y-96043750D03*
%TD*%
D14*
%TO.C,MX2*%
X84137500Y-96043750D03*
D15*
X79057500Y-96043750D03*
X89217500Y-96043750D03*
%TD*%
D14*
%TO.C,MX1*%
X65087500Y-96043750D03*
D15*
X60007500Y-96043750D03*
X70167500Y-96043750D03*
%TD*%
M02*
