M48
; DRILL file {KiCad (5.1.10)-1} date 11/01/21 22:25:49
; FORMAT={-:-/ absolute / inch / decimal}
; #@! TF.CreationDate,2021-11-01T22:25:49+02:00
; #@! TF.GenerationSoftware,Kicad,Pcbnew,(5.1.10)-1
; #@! TF.FileFunction,Plated,1,2,PTH
FMAT,2
INCH
T1C0.0157
T2C0.0236
T3C0.0579
%
G90
G05
T1
X3.0312Y-4.0625
X3.0625Y-2.75
X3.1562Y-3.0312
X3.2188Y-3.0938
X3.2308Y-3.0604
X3.25Y-2.5625
X3.25Y-2.8125
X3.3438Y-2.6875
X3.4062Y-2.5938
X3.4062Y-3.2812
X3.5312Y-2.5938
X3.5625Y-3.5938
X3.5938Y-3.5312
X3.625Y-4.1562
X3.6562Y-3.4062
X3.6562Y-4.5625
X3.6875Y-5.2812
X3.7218Y-3.2782
X3.7812Y-2.4688
X3.8438Y-3.3438
X3.875Y-3.0625
X3.875Y-3.1562
X3.875Y-3.4062
X3.9017Y-2.6214
X3.9044Y-2.7518
X3.9062Y-2.9375
X3.9688Y-2.7812
X3.9688Y-3.375
X4.0312Y-3.0
X4.0874Y-2.8686
X4.0938Y-2.7812
X4.125Y-3.0
X4.1847Y-2.6419
X4.1875Y-3.2188
X4.2812Y-3.0312
T3
X2.4125Y-3.6812
X2.4125Y-4.4312
X2.4125Y-5.1812
X2.6625Y-3.5812
X2.6625Y-4.3312
X2.6625Y-5.0812
X3.1625Y-3.6812
X3.1625Y-4.4312
X3.1625Y-5.1812
X3.4125Y-3.5812
X3.4125Y-4.3312
X3.4125Y-5.0812
X3.9125Y-3.6812
X3.9125Y-4.4312
X3.9125Y-5.1812
X4.1625Y-3.5812
X4.1625Y-4.3312
X4.1625Y-5.0812
X4.6625Y-3.6812
X4.6625Y-4.4312
X4.6625Y-5.1812
X4.9125Y-3.5812
X4.9125Y-4.3312
X4.9125Y-5.0812
T2
G00X3.8924Y-2.3718
M15
G01X3.8924Y-2.3954
M16
G05
G00X3.8924Y-2.5265
M15
G01X3.8924Y-2.5698
M16
G05
G00X4.2326Y-2.3718
M15
G01X4.2326Y-2.3954
M16
G05
G00X4.2326Y-2.5265
M15
G01X4.2326Y-2.5698
M16
G05
T0
M30
