%TF.GenerationSoftware,KiCad,Pcbnew,(5.1.10)-1*%
%TF.CreationDate,2021-11-01T22:25:46+02:00*%
%TF.ProjectId,V1,56312e6b-6963-4616-945f-706362585858,rev?*%
%TF.SameCoordinates,Original*%
%TF.FileFunction,Legend,Bot*%
%TF.FilePolarity,Positive*%
%FSLAX46Y46*%
G04 Gerber Fmt 4.6, Leading zero omitted, Abs format (unit mm)*
G04 Created by KiCad (PCBNEW (5.1.10)-1) date 2021-11-01 22:25:46*
%MOMM*%
%LPD*%
G01*
G04 APERTURE LIST*
%ADD10C,0.120000*%
%ADD11C,0.150000*%
%ADD12R,1.400000X1.200000*%
%ADD13R,0.600000X1.450000*%
%ADD14R,0.300000X1.450000*%
%ADD15C,0.650000*%
%ADD16O,1.000000X2.100000*%
%ADD17O,1.000000X1.600000*%
%ADD18R,0.550000X1.500000*%
%ADD19R,1.500000X0.550000*%
%ADD20R,1.800000X1.100000*%
%ADD21C,2.250000*%
%ADD22C,3.987800*%
%ADD23C,1.750000*%
%ADD24R,1.200000X0.900000*%
G04 APERTURE END LIST*
D10*
%TO.C,Y1*%
X92487500Y-61850000D02*
X92487500Y-65150000D01*
X92487500Y-65150000D02*
X88487500Y-65150000D01*
D11*
%TO.C,U1*%
X85312500Y-81375000D02*
X85312500Y-80800000D01*
X95662500Y-81375000D02*
X95662500Y-80700000D01*
X95662500Y-71025000D02*
X95662500Y-71700000D01*
X85312500Y-71025000D02*
X85312500Y-71700000D01*
X85312500Y-81375000D02*
X85987500Y-81375000D01*
X85312500Y-71025000D02*
X85987500Y-71025000D01*
X95662500Y-71025000D02*
X94987500Y-71025000D01*
X95662500Y-81375000D02*
X94987500Y-81375000D01*
X85312500Y-80800000D02*
X84037500Y-80800000D01*
%TO.C,SW1*%
X104981250Y-81756250D02*
G75*
G03*
X104981250Y-81756250I-1000000J0D01*
G01*
X101381250Y-79156250D02*
X101381250Y-84356250D01*
X106581250Y-79156250D02*
X101381250Y-79156250D01*
X106581250Y-84356250D02*
X106581250Y-79156250D01*
X101381250Y-84356250D02*
X106581250Y-84356250D01*
D10*
%TO.C,R6*%
X96747064Y-66575000D02*
X96292936Y-66575000D01*
X96747064Y-68045000D02*
X96292936Y-68045000D01*
%TO.C,R5*%
X106303750Y-74045814D02*
X106303750Y-73591686D01*
X104833750Y-74045814D02*
X104833750Y-73591686D01*
%TO.C,R4*%
X103128750Y-74045814D02*
X103128750Y-73591686D01*
X101658750Y-74045814D02*
X101658750Y-73591686D01*
%TO.C,R3*%
X103128750Y-70077064D02*
X103128750Y-69622936D01*
X101658750Y-70077064D02*
X101658750Y-69622936D01*
%TO.C,R2*%
X106303750Y-70077064D02*
X106303750Y-69622936D01*
X104833750Y-70077064D02*
X104833750Y-69622936D01*
%TO.C,R1*%
X80110000Y-67537064D02*
X80110000Y-67082936D01*
X78640000Y-67537064D02*
X78640000Y-67082936D01*
%TO.C,F1*%
X109653750Y-74233314D02*
X109653750Y-73029186D01*
X107833750Y-74233314D02*
X107833750Y-73029186D01*
%TO.C,D12*%
X131175000Y-136393750D02*
X129175000Y-136393750D01*
X129175000Y-136393750D02*
X129175000Y-132493750D01*
X131175000Y-136393750D02*
X131175000Y-132493750D01*
%TO.C,D11*%
X112125000Y-136393750D02*
X110125000Y-136393750D01*
X110125000Y-136393750D02*
X110125000Y-132493750D01*
X112125000Y-136393750D02*
X112125000Y-132493750D01*
%TO.C,D10*%
X93075000Y-136393750D02*
X91075000Y-136393750D01*
X91075000Y-136393750D02*
X91075000Y-132493750D01*
X93075000Y-136393750D02*
X93075000Y-132493750D01*
%TO.C,D9*%
X74025000Y-136393750D02*
X72025000Y-136393750D01*
X72025000Y-136393750D02*
X72025000Y-132493750D01*
X74025000Y-136393750D02*
X74025000Y-132493750D01*
%TO.C,D8*%
X131175000Y-117343750D02*
X129175000Y-117343750D01*
X129175000Y-117343750D02*
X129175000Y-113443750D01*
X131175000Y-117343750D02*
X131175000Y-113443750D01*
%TO.C,D7*%
X112125000Y-117343750D02*
X110125000Y-117343750D01*
X110125000Y-117343750D02*
X110125000Y-113443750D01*
X112125000Y-117343750D02*
X112125000Y-113443750D01*
%TO.C,D6*%
X93075000Y-117343750D02*
X91075000Y-117343750D01*
X91075000Y-117343750D02*
X91075000Y-113443750D01*
X93075000Y-117343750D02*
X93075000Y-113443750D01*
%TO.C,D5*%
X74025000Y-117343750D02*
X72025000Y-117343750D01*
X72025000Y-117343750D02*
X72025000Y-113443750D01*
X74025000Y-117343750D02*
X74025000Y-113443750D01*
%TO.C,D4*%
X131175000Y-98293750D02*
X129175000Y-98293750D01*
X129175000Y-98293750D02*
X129175000Y-94393750D01*
X131175000Y-98293750D02*
X131175000Y-94393750D01*
%TO.C,D3*%
X112125000Y-98293750D02*
X110125000Y-98293750D01*
X110125000Y-98293750D02*
X110125000Y-94393750D01*
X112125000Y-98293750D02*
X112125000Y-94393750D01*
%TO.C,D2*%
X93075000Y-98293750D02*
X91075000Y-98293750D01*
X91075000Y-98293750D02*
X91075000Y-94393750D01*
X93075000Y-98293750D02*
X93075000Y-94393750D01*
%TO.C,D1*%
X74025000Y-98293750D02*
X72025000Y-98293750D01*
X72025000Y-98293750D02*
X72025000Y-94393750D01*
X74025000Y-98293750D02*
X74025000Y-94393750D01*
%TO.C,C7*%
X81815000Y-81651248D02*
X81815000Y-82173752D01*
X83285000Y-81651248D02*
X83285000Y-82173752D01*
%TO.C,C6*%
X95511252Y-84196250D02*
X94988748Y-84196250D01*
X95511252Y-85666250D02*
X94988748Y-85666250D01*
%TO.C,C5*%
X98325000Y-72651252D02*
X98325000Y-72128748D01*
X99795000Y-72651252D02*
X99795000Y-72128748D01*
%TO.C,C4*%
X83126250Y-67571252D02*
X83126250Y-67048748D01*
X81656250Y-67571252D02*
X81656250Y-67048748D01*
%TO.C,C3*%
X81223752Y-74195000D02*
X80701248Y-74195000D01*
X81223752Y-75665000D02*
X80701248Y-75665000D01*
%TO.C,C2*%
X85783750Y-63238748D02*
X85783750Y-63761252D01*
X87253750Y-63238748D02*
X87253750Y-63761252D01*
%TO.C,C1*%
X95191250Y-63761252D02*
X95191250Y-63238748D01*
X93721250Y-63761252D02*
X93721250Y-63238748D01*
%TO.C,Y1*%
D11*
X90963690Y-61026190D02*
X90963690Y-61502380D01*
X91297023Y-60502380D02*
X90963690Y-61026190D01*
X90630357Y-60502380D01*
X89773214Y-61502380D02*
X90344642Y-61502380D01*
X90058928Y-61502380D02*
X90058928Y-60502380D01*
X90154166Y-60645238D01*
X90249404Y-60740476D01*
X90344642Y-60788095D01*
%TO.C,USB1*%
X104925595Y-66646130D02*
X104925595Y-67455654D01*
X104877976Y-67550892D01*
X104830357Y-67598511D01*
X104735119Y-67646130D01*
X104544642Y-67646130D01*
X104449404Y-67598511D01*
X104401785Y-67550892D01*
X104354166Y-67455654D01*
X104354166Y-66646130D01*
X103925595Y-67598511D02*
X103782738Y-67646130D01*
X103544642Y-67646130D01*
X103449404Y-67598511D01*
X103401785Y-67550892D01*
X103354166Y-67455654D01*
X103354166Y-67360416D01*
X103401785Y-67265178D01*
X103449404Y-67217559D01*
X103544642Y-67169940D01*
X103735119Y-67122321D01*
X103830357Y-67074702D01*
X103877976Y-67027083D01*
X103925595Y-66931845D01*
X103925595Y-66836607D01*
X103877976Y-66741369D01*
X103830357Y-66693750D01*
X103735119Y-66646130D01*
X103497023Y-66646130D01*
X103354166Y-66693750D01*
X102592261Y-67122321D02*
X102449404Y-67169940D01*
X102401785Y-67217559D01*
X102354166Y-67312797D01*
X102354166Y-67455654D01*
X102401785Y-67550892D01*
X102449404Y-67598511D01*
X102544642Y-67646130D01*
X102925595Y-67646130D01*
X102925595Y-66646130D01*
X102592261Y-66646130D01*
X102497023Y-66693750D01*
X102449404Y-66741369D01*
X102401785Y-66836607D01*
X102401785Y-66931845D01*
X102449404Y-67027083D01*
X102497023Y-67074702D01*
X102592261Y-67122321D01*
X102925595Y-67122321D01*
X101401785Y-67646130D02*
X101973214Y-67646130D01*
X101687500Y-67646130D02*
X101687500Y-66646130D01*
X101782738Y-66788988D01*
X101877976Y-66884226D01*
X101973214Y-66931845D01*
%TO.C,U1*%
X91249404Y-83102380D02*
X91249404Y-83911904D01*
X91201785Y-84007142D01*
X91154166Y-84054761D01*
X91058928Y-84102380D01*
X90868452Y-84102380D01*
X90773214Y-84054761D01*
X90725595Y-84007142D01*
X90677976Y-83911904D01*
X90677976Y-83102380D01*
X89677976Y-84102380D02*
X90249404Y-84102380D01*
X89963690Y-84102380D02*
X89963690Y-83102380D01*
X90058928Y-83245238D01*
X90154166Y-83340476D01*
X90249404Y-83388095D01*
%TO.C,SW1*%
X105314583Y-78097011D02*
X105171726Y-78144630D01*
X104933630Y-78144630D01*
X104838392Y-78097011D01*
X104790773Y-78049392D01*
X104743154Y-77954154D01*
X104743154Y-77858916D01*
X104790773Y-77763678D01*
X104838392Y-77716059D01*
X104933630Y-77668440D01*
X105124107Y-77620821D01*
X105219345Y-77573202D01*
X105266964Y-77525583D01*
X105314583Y-77430345D01*
X105314583Y-77335107D01*
X105266964Y-77239869D01*
X105219345Y-77192250D01*
X105124107Y-77144630D01*
X104886011Y-77144630D01*
X104743154Y-77192250D01*
X104409821Y-77144630D02*
X104171726Y-78144630D01*
X103981250Y-77430345D01*
X103790773Y-78144630D01*
X103552678Y-77144630D01*
X102647916Y-78144630D02*
X103219345Y-78144630D01*
X102933630Y-78144630D02*
X102933630Y-77144630D01*
X103028869Y-77287488D01*
X103124107Y-77382726D01*
X103219345Y-77430345D01*
%TO.C,R6*%
X96686666Y-66112380D02*
X97020000Y-65636190D01*
X97258095Y-66112380D02*
X97258095Y-65112380D01*
X96877142Y-65112380D01*
X96781904Y-65160000D01*
X96734285Y-65207619D01*
X96686666Y-65302857D01*
X96686666Y-65445714D01*
X96734285Y-65540952D01*
X96781904Y-65588571D01*
X96877142Y-65636190D01*
X97258095Y-65636190D01*
X95829523Y-65112380D02*
X96020000Y-65112380D01*
X96115238Y-65160000D01*
X96162857Y-65207619D01*
X96258095Y-65350476D01*
X96305714Y-65540952D01*
X96305714Y-65921904D01*
X96258095Y-66017142D01*
X96210476Y-66064761D01*
X96115238Y-66112380D01*
X95924761Y-66112380D01*
X95829523Y-66064761D01*
X95781904Y-66017142D01*
X95734285Y-65921904D01*
X95734285Y-65683809D01*
X95781904Y-65588571D01*
X95829523Y-65540952D01*
X95924761Y-65493333D01*
X96115238Y-65493333D01*
X96210476Y-65540952D01*
X96258095Y-65588571D01*
X96305714Y-65683809D01*
%TO.C,R5*%
X107671130Y-73652083D02*
X107194940Y-73318750D01*
X107671130Y-73080654D02*
X106671130Y-73080654D01*
X106671130Y-73461607D01*
X106718750Y-73556845D01*
X106766369Y-73604464D01*
X106861607Y-73652083D01*
X107004464Y-73652083D01*
X107099702Y-73604464D01*
X107147321Y-73556845D01*
X107194940Y-73461607D01*
X107194940Y-73080654D01*
X106671130Y-74556845D02*
X106671130Y-74080654D01*
X107147321Y-74033035D01*
X107099702Y-74080654D01*
X107052083Y-74175892D01*
X107052083Y-74413988D01*
X107099702Y-74509226D01*
X107147321Y-74556845D01*
X107242559Y-74604464D01*
X107480654Y-74604464D01*
X107575892Y-74556845D01*
X107623511Y-74509226D01*
X107671130Y-74413988D01*
X107671130Y-74175892D01*
X107623511Y-74080654D01*
X107575892Y-74033035D01*
%TO.C,R4*%
X104496130Y-73652083D02*
X104019940Y-73318750D01*
X104496130Y-73080654D02*
X103496130Y-73080654D01*
X103496130Y-73461607D01*
X103543750Y-73556845D01*
X103591369Y-73604464D01*
X103686607Y-73652083D01*
X103829464Y-73652083D01*
X103924702Y-73604464D01*
X103972321Y-73556845D01*
X104019940Y-73461607D01*
X104019940Y-73080654D01*
X103829464Y-74509226D02*
X104496130Y-74509226D01*
X103448511Y-74271130D02*
X104162797Y-74033035D01*
X104162797Y-74652083D01*
%TO.C,R3*%
X104496130Y-69683333D02*
X104019940Y-69350000D01*
X104496130Y-69111904D02*
X103496130Y-69111904D01*
X103496130Y-69492857D01*
X103543750Y-69588095D01*
X103591369Y-69635714D01*
X103686607Y-69683333D01*
X103829464Y-69683333D01*
X103924702Y-69635714D01*
X103972321Y-69588095D01*
X104019940Y-69492857D01*
X104019940Y-69111904D01*
X103496130Y-70016666D02*
X103496130Y-70635714D01*
X103877083Y-70302380D01*
X103877083Y-70445238D01*
X103924702Y-70540476D01*
X103972321Y-70588095D01*
X104067559Y-70635714D01*
X104305654Y-70635714D01*
X104400892Y-70588095D01*
X104448511Y-70540476D01*
X104496130Y-70445238D01*
X104496130Y-70159523D01*
X104448511Y-70064285D01*
X104400892Y-70016666D01*
%TO.C,R2*%
X107671130Y-69683333D02*
X107194940Y-69350000D01*
X107671130Y-69111904D02*
X106671130Y-69111904D01*
X106671130Y-69492857D01*
X106718750Y-69588095D01*
X106766369Y-69635714D01*
X106861607Y-69683333D01*
X107004464Y-69683333D01*
X107099702Y-69635714D01*
X107147321Y-69588095D01*
X107194940Y-69492857D01*
X107194940Y-69111904D01*
X106766369Y-70064285D02*
X106718750Y-70111904D01*
X106671130Y-70207142D01*
X106671130Y-70445238D01*
X106718750Y-70540476D01*
X106766369Y-70588095D01*
X106861607Y-70635714D01*
X106956845Y-70635714D01*
X107099702Y-70588095D01*
X107671130Y-70016666D01*
X107671130Y-70635714D01*
%TO.C,R1*%
X81477380Y-67143333D02*
X81001190Y-66810000D01*
X81477380Y-66571904D02*
X80477380Y-66571904D01*
X80477380Y-66952857D01*
X80525000Y-67048095D01*
X80572619Y-67095714D01*
X80667857Y-67143333D01*
X80810714Y-67143333D01*
X80905952Y-67095714D01*
X80953571Y-67048095D01*
X81001190Y-66952857D01*
X81001190Y-66571904D01*
X81477380Y-68095714D02*
X81477380Y-67524285D01*
X81477380Y-67810000D02*
X80477380Y-67810000D01*
X80620238Y-67714761D01*
X80715476Y-67619523D01*
X80763095Y-67524285D01*
%TO.C,F1*%
X110492321Y-73297916D02*
X110492321Y-72964583D01*
X111016130Y-72964583D02*
X110016130Y-72964583D01*
X110016130Y-73440773D01*
X111016130Y-74345535D02*
X111016130Y-73774107D01*
X111016130Y-74059821D02*
X110016130Y-74059821D01*
X110158988Y-73964583D01*
X110254226Y-73869345D01*
X110301845Y-73774107D01*
%TO.C,D12*%
X131722619Y-135358035D02*
X132722619Y-135358035D01*
X132722619Y-135119940D01*
X132675000Y-134977083D01*
X132579761Y-134881845D01*
X132484523Y-134834226D01*
X132294047Y-134786607D01*
X132151190Y-134786607D01*
X131960714Y-134834226D01*
X131865476Y-134881845D01*
X131770238Y-134977083D01*
X131722619Y-135119940D01*
X131722619Y-135358035D01*
X131722619Y-133834226D02*
X131722619Y-134405654D01*
X131722619Y-134119940D02*
X132722619Y-134119940D01*
X132579761Y-134215178D01*
X132484523Y-134310416D01*
X132436904Y-134405654D01*
X132627380Y-133453273D02*
X132675000Y-133405654D01*
X132722619Y-133310416D01*
X132722619Y-133072321D01*
X132675000Y-132977083D01*
X132627380Y-132929464D01*
X132532142Y-132881845D01*
X132436904Y-132881845D01*
X132294047Y-132929464D01*
X131722619Y-133500892D01*
X131722619Y-132881845D01*
%TO.C,D11*%
X112672619Y-135358035D02*
X113672619Y-135358035D01*
X113672619Y-135119940D01*
X113625000Y-134977083D01*
X113529761Y-134881845D01*
X113434523Y-134834226D01*
X113244047Y-134786607D01*
X113101190Y-134786607D01*
X112910714Y-134834226D01*
X112815476Y-134881845D01*
X112720238Y-134977083D01*
X112672619Y-135119940D01*
X112672619Y-135358035D01*
X112672619Y-133834226D02*
X112672619Y-134405654D01*
X112672619Y-134119940D02*
X113672619Y-134119940D01*
X113529761Y-134215178D01*
X113434523Y-134310416D01*
X113386904Y-134405654D01*
X112672619Y-132881845D02*
X112672619Y-133453273D01*
X112672619Y-133167559D02*
X113672619Y-133167559D01*
X113529761Y-133262797D01*
X113434523Y-133358035D01*
X113386904Y-133453273D01*
%TO.C,D10*%
X93622619Y-135358035D02*
X94622619Y-135358035D01*
X94622619Y-135119940D01*
X94575000Y-134977083D01*
X94479761Y-134881845D01*
X94384523Y-134834226D01*
X94194047Y-134786607D01*
X94051190Y-134786607D01*
X93860714Y-134834226D01*
X93765476Y-134881845D01*
X93670238Y-134977083D01*
X93622619Y-135119940D01*
X93622619Y-135358035D01*
X93622619Y-133834226D02*
X93622619Y-134405654D01*
X93622619Y-134119940D02*
X94622619Y-134119940D01*
X94479761Y-134215178D01*
X94384523Y-134310416D01*
X94336904Y-134405654D01*
X94622619Y-133215178D02*
X94622619Y-133119940D01*
X94575000Y-133024702D01*
X94527380Y-132977083D01*
X94432142Y-132929464D01*
X94241666Y-132881845D01*
X94003571Y-132881845D01*
X93813095Y-132929464D01*
X93717857Y-132977083D01*
X93670238Y-133024702D01*
X93622619Y-133119940D01*
X93622619Y-133215178D01*
X93670238Y-133310416D01*
X93717857Y-133358035D01*
X93813095Y-133405654D01*
X94003571Y-133453273D01*
X94241666Y-133453273D01*
X94432142Y-133405654D01*
X94527380Y-133358035D01*
X94575000Y-133310416D01*
X94622619Y-133215178D01*
%TO.C,D9*%
X74572619Y-134881845D02*
X75572619Y-134881845D01*
X75572619Y-134643750D01*
X75525000Y-134500892D01*
X75429761Y-134405654D01*
X75334523Y-134358035D01*
X75144047Y-134310416D01*
X75001190Y-134310416D01*
X74810714Y-134358035D01*
X74715476Y-134405654D01*
X74620238Y-134500892D01*
X74572619Y-134643750D01*
X74572619Y-134881845D01*
X74572619Y-133834226D02*
X74572619Y-133643750D01*
X74620238Y-133548511D01*
X74667857Y-133500892D01*
X74810714Y-133405654D01*
X75001190Y-133358035D01*
X75382142Y-133358035D01*
X75477380Y-133405654D01*
X75525000Y-133453273D01*
X75572619Y-133548511D01*
X75572619Y-133738988D01*
X75525000Y-133834226D01*
X75477380Y-133881845D01*
X75382142Y-133929464D01*
X75144047Y-133929464D01*
X75048809Y-133881845D01*
X75001190Y-133834226D01*
X74953571Y-133738988D01*
X74953571Y-133548511D01*
X75001190Y-133453273D01*
X75048809Y-133405654D01*
X75144047Y-133358035D01*
%TO.C,D8*%
X131722619Y-115831845D02*
X132722619Y-115831845D01*
X132722619Y-115593750D01*
X132675000Y-115450892D01*
X132579761Y-115355654D01*
X132484523Y-115308035D01*
X132294047Y-115260416D01*
X132151190Y-115260416D01*
X131960714Y-115308035D01*
X131865476Y-115355654D01*
X131770238Y-115450892D01*
X131722619Y-115593750D01*
X131722619Y-115831845D01*
X132294047Y-114688988D02*
X132341666Y-114784226D01*
X132389285Y-114831845D01*
X132484523Y-114879464D01*
X132532142Y-114879464D01*
X132627380Y-114831845D01*
X132675000Y-114784226D01*
X132722619Y-114688988D01*
X132722619Y-114498511D01*
X132675000Y-114403273D01*
X132627380Y-114355654D01*
X132532142Y-114308035D01*
X132484523Y-114308035D01*
X132389285Y-114355654D01*
X132341666Y-114403273D01*
X132294047Y-114498511D01*
X132294047Y-114688988D01*
X132246428Y-114784226D01*
X132198809Y-114831845D01*
X132103571Y-114879464D01*
X131913095Y-114879464D01*
X131817857Y-114831845D01*
X131770238Y-114784226D01*
X131722619Y-114688988D01*
X131722619Y-114498511D01*
X131770238Y-114403273D01*
X131817857Y-114355654D01*
X131913095Y-114308035D01*
X132103571Y-114308035D01*
X132198809Y-114355654D01*
X132246428Y-114403273D01*
X132294047Y-114498511D01*
%TO.C,D7*%
X112672619Y-115831845D02*
X113672619Y-115831845D01*
X113672619Y-115593750D01*
X113625000Y-115450892D01*
X113529761Y-115355654D01*
X113434523Y-115308035D01*
X113244047Y-115260416D01*
X113101190Y-115260416D01*
X112910714Y-115308035D01*
X112815476Y-115355654D01*
X112720238Y-115450892D01*
X112672619Y-115593750D01*
X112672619Y-115831845D01*
X113672619Y-114927083D02*
X113672619Y-114260416D01*
X112672619Y-114688988D01*
%TO.C,D6*%
X94527380Y-114355654D02*
X93527380Y-114355654D01*
X93527380Y-114593750D01*
X93575000Y-114736607D01*
X93670238Y-114831845D01*
X93765476Y-114879464D01*
X93955952Y-114927083D01*
X94098809Y-114927083D01*
X94289285Y-114879464D01*
X94384523Y-114831845D01*
X94479761Y-114736607D01*
X94527380Y-114593750D01*
X94527380Y-114355654D01*
X93527380Y-115784226D02*
X93527380Y-115593750D01*
X93575000Y-115498511D01*
X93622619Y-115450892D01*
X93765476Y-115355654D01*
X93955952Y-115308035D01*
X94336904Y-115308035D01*
X94432142Y-115355654D01*
X94479761Y-115403273D01*
X94527380Y-115498511D01*
X94527380Y-115688988D01*
X94479761Y-115784226D01*
X94432142Y-115831845D01*
X94336904Y-115879464D01*
X94098809Y-115879464D01*
X94003571Y-115831845D01*
X93955952Y-115784226D01*
X93908333Y-115688988D01*
X93908333Y-115498511D01*
X93955952Y-115403273D01*
X94003571Y-115355654D01*
X94098809Y-115308035D01*
%TO.C,D5*%
X74572619Y-115831845D02*
X75572619Y-115831845D01*
X75572619Y-115593750D01*
X75525000Y-115450892D01*
X75429761Y-115355654D01*
X75334523Y-115308035D01*
X75144047Y-115260416D01*
X75001190Y-115260416D01*
X74810714Y-115308035D01*
X74715476Y-115355654D01*
X74620238Y-115450892D01*
X74572619Y-115593750D01*
X74572619Y-115831845D01*
X75572619Y-114355654D02*
X75572619Y-114831845D01*
X75096428Y-114879464D01*
X75144047Y-114831845D01*
X75191666Y-114736607D01*
X75191666Y-114498511D01*
X75144047Y-114403273D01*
X75096428Y-114355654D01*
X75001190Y-114308035D01*
X74763095Y-114308035D01*
X74667857Y-114355654D01*
X74620238Y-114403273D01*
X74572619Y-114498511D01*
X74572619Y-114736607D01*
X74620238Y-114831845D01*
X74667857Y-114879464D01*
%TO.C,D4*%
X131722619Y-96781845D02*
X132722619Y-96781845D01*
X132722619Y-96543750D01*
X132675000Y-96400892D01*
X132579761Y-96305654D01*
X132484523Y-96258035D01*
X132294047Y-96210416D01*
X132151190Y-96210416D01*
X131960714Y-96258035D01*
X131865476Y-96305654D01*
X131770238Y-96400892D01*
X131722619Y-96543750D01*
X131722619Y-96781845D01*
X132389285Y-95353273D02*
X131722619Y-95353273D01*
X132770238Y-95591369D02*
X132055952Y-95829464D01*
X132055952Y-95210416D01*
%TO.C,D3*%
X112672619Y-96781845D02*
X113672619Y-96781845D01*
X113672619Y-96543750D01*
X113625000Y-96400892D01*
X113529761Y-96305654D01*
X113434523Y-96258035D01*
X113244047Y-96210416D01*
X113101190Y-96210416D01*
X112910714Y-96258035D01*
X112815476Y-96305654D01*
X112720238Y-96400892D01*
X112672619Y-96543750D01*
X112672619Y-96781845D01*
X113672619Y-95877083D02*
X113672619Y-95258035D01*
X113291666Y-95591369D01*
X113291666Y-95448511D01*
X113244047Y-95353273D01*
X113196428Y-95305654D01*
X113101190Y-95258035D01*
X112863095Y-95258035D01*
X112767857Y-95305654D01*
X112720238Y-95353273D01*
X112672619Y-95448511D01*
X112672619Y-95734226D01*
X112720238Y-95829464D01*
X112767857Y-95877083D01*
%TO.C,D2*%
X93622619Y-96781845D02*
X94622619Y-96781845D01*
X94622619Y-96543750D01*
X94575000Y-96400892D01*
X94479761Y-96305654D01*
X94384523Y-96258035D01*
X94194047Y-96210416D01*
X94051190Y-96210416D01*
X93860714Y-96258035D01*
X93765476Y-96305654D01*
X93670238Y-96400892D01*
X93622619Y-96543750D01*
X93622619Y-96781845D01*
X94527380Y-95829464D02*
X94575000Y-95781845D01*
X94622619Y-95686607D01*
X94622619Y-95448511D01*
X94575000Y-95353273D01*
X94527380Y-95305654D01*
X94432142Y-95258035D01*
X94336904Y-95258035D01*
X94194047Y-95305654D01*
X93622619Y-95877083D01*
X93622619Y-95258035D01*
%TO.C,D1*%
X75477380Y-95305654D02*
X74477380Y-95305654D01*
X74477380Y-95543750D01*
X74525000Y-95686607D01*
X74620238Y-95781845D01*
X74715476Y-95829464D01*
X74905952Y-95877083D01*
X75048809Y-95877083D01*
X75239285Y-95829464D01*
X75334523Y-95781845D01*
X75429761Y-95686607D01*
X75477380Y-95543750D01*
X75477380Y-95305654D01*
X75477380Y-96829464D02*
X75477380Y-96258035D01*
X75477380Y-96543750D02*
X74477380Y-96543750D01*
X74620238Y-96448511D01*
X74715476Y-96353273D01*
X74763095Y-96258035D01*
%TO.C,C7*%
X81227142Y-81745833D02*
X81274761Y-81698214D01*
X81322380Y-81555357D01*
X81322380Y-81460119D01*
X81274761Y-81317261D01*
X81179523Y-81222023D01*
X81084285Y-81174404D01*
X80893809Y-81126785D01*
X80750952Y-81126785D01*
X80560476Y-81174404D01*
X80465238Y-81222023D01*
X80370000Y-81317261D01*
X80322380Y-81460119D01*
X80322380Y-81555357D01*
X80370000Y-81698214D01*
X80417619Y-81745833D01*
X80322380Y-82079166D02*
X80322380Y-82745833D01*
X81322380Y-82317261D01*
%TO.C,C6*%
X95416666Y-83608392D02*
X95464285Y-83656011D01*
X95607142Y-83703630D01*
X95702380Y-83703630D01*
X95845238Y-83656011D01*
X95940476Y-83560773D01*
X95988095Y-83465535D01*
X96035714Y-83275059D01*
X96035714Y-83132202D01*
X95988095Y-82941726D01*
X95940476Y-82846488D01*
X95845238Y-82751250D01*
X95702380Y-82703630D01*
X95607142Y-82703630D01*
X95464285Y-82751250D01*
X95416666Y-82798869D01*
X94559523Y-82703630D02*
X94750000Y-82703630D01*
X94845238Y-82751250D01*
X94892857Y-82798869D01*
X94988095Y-82941726D01*
X95035714Y-83132202D01*
X95035714Y-83513154D01*
X94988095Y-83608392D01*
X94940476Y-83656011D01*
X94845238Y-83703630D01*
X94654761Y-83703630D01*
X94559523Y-83656011D01*
X94511904Y-83608392D01*
X94464285Y-83513154D01*
X94464285Y-83275059D01*
X94511904Y-83179821D01*
X94559523Y-83132202D01*
X94654761Y-83084583D01*
X94845238Y-83084583D01*
X94940476Y-83132202D01*
X94988095Y-83179821D01*
X95035714Y-83275059D01*
%TO.C,C5*%
X101097142Y-72223333D02*
X101144761Y-72175714D01*
X101192380Y-72032857D01*
X101192380Y-71937619D01*
X101144761Y-71794761D01*
X101049523Y-71699523D01*
X100954285Y-71651904D01*
X100763809Y-71604285D01*
X100620952Y-71604285D01*
X100430476Y-71651904D01*
X100335238Y-71699523D01*
X100240000Y-71794761D01*
X100192380Y-71937619D01*
X100192380Y-72032857D01*
X100240000Y-72175714D01*
X100287619Y-72223333D01*
X100192380Y-73128095D02*
X100192380Y-72651904D01*
X100668571Y-72604285D01*
X100620952Y-72651904D01*
X100573333Y-72747142D01*
X100573333Y-72985238D01*
X100620952Y-73080476D01*
X100668571Y-73128095D01*
X100763809Y-73175714D01*
X101001904Y-73175714D01*
X101097142Y-73128095D01*
X101144761Y-73080476D01*
X101192380Y-72985238D01*
X101192380Y-72747142D01*
X101144761Y-72651904D01*
X101097142Y-72604285D01*
%TO.C,C4*%
X84428392Y-67143333D02*
X84476011Y-67095714D01*
X84523630Y-66952857D01*
X84523630Y-66857619D01*
X84476011Y-66714761D01*
X84380773Y-66619523D01*
X84285535Y-66571904D01*
X84095059Y-66524285D01*
X83952202Y-66524285D01*
X83761726Y-66571904D01*
X83666488Y-66619523D01*
X83571250Y-66714761D01*
X83523630Y-66857619D01*
X83523630Y-66952857D01*
X83571250Y-67095714D01*
X83618869Y-67143333D01*
X83856964Y-68000476D02*
X84523630Y-68000476D01*
X83476011Y-67762380D02*
X84190297Y-67524285D01*
X84190297Y-68143333D01*
%TO.C,C3*%
X81129166Y-73607142D02*
X81176785Y-73654761D01*
X81319642Y-73702380D01*
X81414880Y-73702380D01*
X81557738Y-73654761D01*
X81652976Y-73559523D01*
X81700595Y-73464285D01*
X81748214Y-73273809D01*
X81748214Y-73130952D01*
X81700595Y-72940476D01*
X81652976Y-72845238D01*
X81557738Y-72750000D01*
X81414880Y-72702380D01*
X81319642Y-72702380D01*
X81176785Y-72750000D01*
X81129166Y-72797619D01*
X80795833Y-72702380D02*
X80176785Y-72702380D01*
X80510119Y-73083333D01*
X80367261Y-73083333D01*
X80272023Y-73130952D01*
X80224404Y-73178571D01*
X80176785Y-73273809D01*
X80176785Y-73511904D01*
X80224404Y-73607142D01*
X80272023Y-73654761D01*
X80367261Y-73702380D01*
X80652976Y-73702380D01*
X80748214Y-73654761D01*
X80795833Y-73607142D01*
%TO.C,C2*%
X85195892Y-63333333D02*
X85243511Y-63285714D01*
X85291130Y-63142857D01*
X85291130Y-63047619D01*
X85243511Y-62904761D01*
X85148273Y-62809523D01*
X85053035Y-62761904D01*
X84862559Y-62714285D01*
X84719702Y-62714285D01*
X84529226Y-62761904D01*
X84433988Y-62809523D01*
X84338750Y-62904761D01*
X84291130Y-63047619D01*
X84291130Y-63142857D01*
X84338750Y-63285714D01*
X84386369Y-63333333D01*
X84386369Y-63714285D02*
X84338750Y-63761904D01*
X84291130Y-63857142D01*
X84291130Y-64095238D01*
X84338750Y-64190476D01*
X84386369Y-64238095D01*
X84481607Y-64285714D01*
X84576845Y-64285714D01*
X84719702Y-64238095D01*
X85291130Y-63666666D01*
X85291130Y-64285714D01*
%TO.C,C1*%
X96493392Y-63333333D02*
X96541011Y-63285714D01*
X96588630Y-63142857D01*
X96588630Y-63047619D01*
X96541011Y-62904761D01*
X96445773Y-62809523D01*
X96350535Y-62761904D01*
X96160059Y-62714285D01*
X96017202Y-62714285D01*
X95826726Y-62761904D01*
X95731488Y-62809523D01*
X95636250Y-62904761D01*
X95588630Y-63047619D01*
X95588630Y-63142857D01*
X95636250Y-63285714D01*
X95683869Y-63333333D01*
X96588630Y-64285714D02*
X96588630Y-63714285D01*
X96588630Y-64000000D02*
X95588630Y-64000000D01*
X95731488Y-63904761D01*
X95826726Y-63809523D01*
X95874345Y-63714285D01*
%TD*%
%LPC*%
D12*
%TO.C,Y1*%
X91587500Y-62650000D03*
X89387500Y-62650000D03*
X89387500Y-64350000D03*
X91587500Y-64350000D03*
%TD*%
D13*
%TO.C,USB1*%
X106412500Y-65638750D03*
X99962500Y-65638750D03*
X105637500Y-65638750D03*
X100737500Y-65638750D03*
D14*
X101437500Y-65638750D03*
X104937500Y-65638750D03*
X101937500Y-65638750D03*
X104437500Y-65638750D03*
X102437500Y-65638750D03*
X103937500Y-65638750D03*
X103437500Y-65638750D03*
X102937500Y-65638750D03*
D15*
X106077500Y-64193750D03*
X100297500Y-64193750D03*
D16*
X98867500Y-64723750D03*
X107507500Y-64723750D03*
D17*
X98867500Y-60543750D03*
X107507500Y-60543750D03*
%TD*%
D18*
%TO.C,U1*%
X86487500Y-81900000D03*
X87287500Y-81900000D03*
X88087500Y-81900000D03*
X88887500Y-81900000D03*
X89687500Y-81900000D03*
X90487500Y-81900000D03*
X91287500Y-81900000D03*
X92087500Y-81900000D03*
X92887500Y-81900000D03*
X93687500Y-81900000D03*
X94487500Y-81900000D03*
D19*
X96187500Y-80200000D03*
X96187500Y-79400000D03*
X96187500Y-78600000D03*
X96187500Y-77800000D03*
X96187500Y-77000000D03*
X96187500Y-76200000D03*
X96187500Y-75400000D03*
X96187500Y-74600000D03*
X96187500Y-73800000D03*
X96187500Y-73000000D03*
X96187500Y-72200000D03*
D18*
X94487500Y-70500000D03*
X93687500Y-70500000D03*
X92887500Y-70500000D03*
X92087500Y-70500000D03*
X91287500Y-70500000D03*
X90487500Y-70500000D03*
X89687500Y-70500000D03*
X88887500Y-70500000D03*
X88087500Y-70500000D03*
X87287500Y-70500000D03*
X86487500Y-70500000D03*
D19*
X84787500Y-72200000D03*
X84787500Y-73000000D03*
X84787500Y-73800000D03*
X84787500Y-74600000D03*
X84787500Y-75400000D03*
X84787500Y-76200000D03*
X84787500Y-77000000D03*
X84787500Y-77800000D03*
X84787500Y-78600000D03*
X84787500Y-79400000D03*
X84787500Y-80200000D03*
%TD*%
D20*
%TO.C,SW1*%
X100881250Y-79906250D03*
X107081250Y-83606250D03*
X100881250Y-83606250D03*
X107081250Y-79906250D03*
%TD*%
%TO.C,R6*%
G36*
G01*
X96120000Y-66859999D02*
X96120000Y-67760001D01*
G75*
G02*
X95870001Y-68010000I-249999J0D01*
G01*
X95344999Y-68010000D01*
G75*
G02*
X95095000Y-67760001I0J249999D01*
G01*
X95095000Y-66859999D01*
G75*
G02*
X95344999Y-66610000I249999J0D01*
G01*
X95870001Y-66610000D01*
G75*
G02*
X96120000Y-66859999I0J-249999D01*
G01*
G37*
G36*
G01*
X97945000Y-66859999D02*
X97945000Y-67760001D01*
G75*
G02*
X97695001Y-68010000I-249999J0D01*
G01*
X97169999Y-68010000D01*
G75*
G02*
X96920000Y-67760001I0J249999D01*
G01*
X96920000Y-66859999D01*
G75*
G02*
X97169999Y-66610000I249999J0D01*
G01*
X97695001Y-66610000D01*
G75*
G02*
X97945000Y-66859999I0J-249999D01*
G01*
G37*
%TD*%
%TO.C,R5*%
G36*
G01*
X106018751Y-73418750D02*
X105118749Y-73418750D01*
G75*
G02*
X104868750Y-73168751I0J249999D01*
G01*
X104868750Y-72643749D01*
G75*
G02*
X105118749Y-72393750I249999J0D01*
G01*
X106018751Y-72393750D01*
G75*
G02*
X106268750Y-72643749I0J-249999D01*
G01*
X106268750Y-73168751D01*
G75*
G02*
X106018751Y-73418750I-249999J0D01*
G01*
G37*
G36*
G01*
X106018751Y-75243750D02*
X105118749Y-75243750D01*
G75*
G02*
X104868750Y-74993751I0J249999D01*
G01*
X104868750Y-74468749D01*
G75*
G02*
X105118749Y-74218750I249999J0D01*
G01*
X106018751Y-74218750D01*
G75*
G02*
X106268750Y-74468749I0J-249999D01*
G01*
X106268750Y-74993751D01*
G75*
G02*
X106018751Y-75243750I-249999J0D01*
G01*
G37*
%TD*%
%TO.C,R4*%
G36*
G01*
X102843751Y-73418750D02*
X101943749Y-73418750D01*
G75*
G02*
X101693750Y-73168751I0J249999D01*
G01*
X101693750Y-72643749D01*
G75*
G02*
X101943749Y-72393750I249999J0D01*
G01*
X102843751Y-72393750D01*
G75*
G02*
X103093750Y-72643749I0J-249999D01*
G01*
X103093750Y-73168751D01*
G75*
G02*
X102843751Y-73418750I-249999J0D01*
G01*
G37*
G36*
G01*
X102843751Y-75243750D02*
X101943749Y-75243750D01*
G75*
G02*
X101693750Y-74993751I0J249999D01*
G01*
X101693750Y-74468749D01*
G75*
G02*
X101943749Y-74218750I249999J0D01*
G01*
X102843751Y-74218750D01*
G75*
G02*
X103093750Y-74468749I0J-249999D01*
G01*
X103093750Y-74993751D01*
G75*
G02*
X102843751Y-75243750I-249999J0D01*
G01*
G37*
%TD*%
%TO.C,R3*%
G36*
G01*
X102843751Y-69450000D02*
X101943749Y-69450000D01*
G75*
G02*
X101693750Y-69200001I0J249999D01*
G01*
X101693750Y-68674999D01*
G75*
G02*
X101943749Y-68425000I249999J0D01*
G01*
X102843751Y-68425000D01*
G75*
G02*
X103093750Y-68674999I0J-249999D01*
G01*
X103093750Y-69200001D01*
G75*
G02*
X102843751Y-69450000I-249999J0D01*
G01*
G37*
G36*
G01*
X102843751Y-71275000D02*
X101943749Y-71275000D01*
G75*
G02*
X101693750Y-71025001I0J249999D01*
G01*
X101693750Y-70499999D01*
G75*
G02*
X101943749Y-70250000I249999J0D01*
G01*
X102843751Y-70250000D01*
G75*
G02*
X103093750Y-70499999I0J-249999D01*
G01*
X103093750Y-71025001D01*
G75*
G02*
X102843751Y-71275000I-249999J0D01*
G01*
G37*
%TD*%
%TO.C,R2*%
G36*
G01*
X106018751Y-69450000D02*
X105118749Y-69450000D01*
G75*
G02*
X104868750Y-69200001I0J249999D01*
G01*
X104868750Y-68674999D01*
G75*
G02*
X105118749Y-68425000I249999J0D01*
G01*
X106018751Y-68425000D01*
G75*
G02*
X106268750Y-68674999I0J-249999D01*
G01*
X106268750Y-69200001D01*
G75*
G02*
X106018751Y-69450000I-249999J0D01*
G01*
G37*
G36*
G01*
X106018751Y-71275000D02*
X105118749Y-71275000D01*
G75*
G02*
X104868750Y-71025001I0J249999D01*
G01*
X104868750Y-70499999D01*
G75*
G02*
X105118749Y-70250000I249999J0D01*
G01*
X106018751Y-70250000D01*
G75*
G02*
X106268750Y-70499999I0J-249999D01*
G01*
X106268750Y-71025001D01*
G75*
G02*
X106018751Y-71275000I-249999J0D01*
G01*
G37*
%TD*%
%TO.C,R1*%
G36*
G01*
X79825001Y-66910000D02*
X78924999Y-66910000D01*
G75*
G02*
X78675000Y-66660001I0J249999D01*
G01*
X78675000Y-66134999D01*
G75*
G02*
X78924999Y-65885000I249999J0D01*
G01*
X79825001Y-65885000D01*
G75*
G02*
X80075000Y-66134999I0J-249999D01*
G01*
X80075000Y-66660001D01*
G75*
G02*
X79825001Y-66910000I-249999J0D01*
G01*
G37*
G36*
G01*
X79825001Y-68735000D02*
X78924999Y-68735000D01*
G75*
G02*
X78675000Y-68485001I0J249999D01*
G01*
X78675000Y-67959999D01*
G75*
G02*
X78924999Y-67710000I249999J0D01*
G01*
X79825001Y-67710000D01*
G75*
G02*
X80075000Y-67959999I0J-249999D01*
G01*
X80075000Y-68485001D01*
G75*
G02*
X79825001Y-68735000I-249999J0D01*
G01*
G37*
%TD*%
D21*
%TO.C,MX12*%
X124777500Y-129063750D03*
D22*
X122237500Y-134143750D03*
D21*
X118427500Y-131603750D03*
D23*
X117157500Y-134143750D03*
X127317500Y-134143750D03*
%TD*%
D21*
%TO.C,MX11*%
X105727500Y-129063750D03*
D22*
X103187500Y-134143750D03*
D21*
X99377500Y-131603750D03*
D23*
X98107500Y-134143750D03*
X108267500Y-134143750D03*
%TD*%
D21*
%TO.C,MX10*%
X86677500Y-129063750D03*
D22*
X84137500Y-134143750D03*
D21*
X80327500Y-131603750D03*
D23*
X79057500Y-134143750D03*
X89217500Y-134143750D03*
%TD*%
D21*
%TO.C,MX9*%
X67627500Y-129063750D03*
D22*
X65087500Y-134143750D03*
D21*
X61277500Y-131603750D03*
D23*
X60007500Y-134143750D03*
X70167500Y-134143750D03*
%TD*%
D21*
%TO.C,MX8*%
X124777500Y-110013750D03*
D22*
X122237500Y-115093750D03*
D21*
X118427500Y-112553750D03*
D23*
X117157500Y-115093750D03*
X127317500Y-115093750D03*
%TD*%
D21*
%TO.C,MX7*%
X105727500Y-110013750D03*
D22*
X103187500Y-115093750D03*
D21*
X99377500Y-112553750D03*
D23*
X98107500Y-115093750D03*
X108267500Y-115093750D03*
%TD*%
D21*
%TO.C,MX6*%
X86677500Y-110013750D03*
D22*
X84137500Y-115093750D03*
D21*
X80327500Y-112553750D03*
D23*
X79057500Y-115093750D03*
X89217500Y-115093750D03*
%TD*%
D21*
%TO.C,MX5*%
X67627500Y-110013750D03*
D22*
X65087500Y-115093750D03*
D21*
X61277500Y-112553750D03*
D23*
X60007500Y-115093750D03*
X70167500Y-115093750D03*
%TD*%
D21*
%TO.C,MX4*%
X124777500Y-90963750D03*
D22*
X122237500Y-96043750D03*
D21*
X118427500Y-93503750D03*
D23*
X117157500Y-96043750D03*
X127317500Y-96043750D03*
%TD*%
D21*
%TO.C,MX3*%
X105727500Y-90963750D03*
D22*
X103187500Y-96043750D03*
D21*
X99377500Y-93503750D03*
D23*
X98107500Y-96043750D03*
X108267500Y-96043750D03*
%TD*%
D21*
%TO.C,MX2*%
X86677500Y-90963750D03*
D22*
X84137500Y-96043750D03*
D21*
X80327500Y-93503750D03*
D23*
X79057500Y-96043750D03*
X89217500Y-96043750D03*
%TD*%
D21*
%TO.C,MX1*%
X67627500Y-90963750D03*
D22*
X65087500Y-96043750D03*
D21*
X61277500Y-93503750D03*
D23*
X60007500Y-96043750D03*
X70167500Y-96043750D03*
%TD*%
%TO.C,F1*%
G36*
G01*
X109368750Y-72856250D02*
X108118750Y-72856250D01*
G75*
G02*
X107868750Y-72606250I0J250000D01*
G01*
X107868750Y-71856250D01*
G75*
G02*
X108118750Y-71606250I250000J0D01*
G01*
X109368750Y-71606250D01*
G75*
G02*
X109618750Y-71856250I0J-250000D01*
G01*
X109618750Y-72606250D01*
G75*
G02*
X109368750Y-72856250I-250000J0D01*
G01*
G37*
G36*
G01*
X109368750Y-75656250D02*
X108118750Y-75656250D01*
G75*
G02*
X107868750Y-75406250I0J250000D01*
G01*
X107868750Y-74656250D01*
G75*
G02*
X108118750Y-74406250I250000J0D01*
G01*
X109368750Y-74406250D01*
G75*
G02*
X109618750Y-74656250I0J-250000D01*
G01*
X109618750Y-75406250D01*
G75*
G02*
X109368750Y-75656250I-250000J0D01*
G01*
G37*
%TD*%
D24*
%TO.C,D12*%
X130175000Y-132493750D03*
X130175000Y-135793750D03*
%TD*%
%TO.C,D11*%
X111125000Y-132493750D03*
X111125000Y-135793750D03*
%TD*%
%TO.C,D10*%
X92075000Y-132493750D03*
X92075000Y-135793750D03*
%TD*%
%TO.C,D9*%
X73025000Y-132493750D03*
X73025000Y-135793750D03*
%TD*%
%TO.C,D8*%
X130175000Y-113443750D03*
X130175000Y-116743750D03*
%TD*%
%TO.C,D7*%
X111125000Y-113443750D03*
X111125000Y-116743750D03*
%TD*%
%TO.C,D6*%
X92075000Y-113443750D03*
X92075000Y-116743750D03*
%TD*%
%TO.C,D5*%
X73025000Y-113443750D03*
X73025000Y-116743750D03*
%TD*%
%TO.C,D4*%
X130175000Y-94393750D03*
X130175000Y-97693750D03*
%TD*%
%TO.C,D3*%
X111125000Y-94393750D03*
X111125000Y-97693750D03*
%TD*%
%TO.C,D2*%
X92075000Y-94393750D03*
X92075000Y-97693750D03*
%TD*%
%TO.C,D1*%
X73025000Y-94393750D03*
X73025000Y-97693750D03*
%TD*%
%TO.C,C7*%
G36*
G01*
X82075000Y-82362500D02*
X83025000Y-82362500D01*
G75*
G02*
X83275000Y-82612500I0J-250000D01*
G01*
X83275000Y-83112500D01*
G75*
G02*
X83025000Y-83362500I-250000J0D01*
G01*
X82075000Y-83362500D01*
G75*
G02*
X81825000Y-83112500I0J250000D01*
G01*
X81825000Y-82612500D01*
G75*
G02*
X82075000Y-82362500I250000J0D01*
G01*
G37*
G36*
G01*
X82075000Y-80462500D02*
X83025000Y-80462500D01*
G75*
G02*
X83275000Y-80712500I0J-250000D01*
G01*
X83275000Y-81212500D01*
G75*
G02*
X83025000Y-81462500I-250000J0D01*
G01*
X82075000Y-81462500D01*
G75*
G02*
X81825000Y-81212500I0J250000D01*
G01*
X81825000Y-80712500D01*
G75*
G02*
X82075000Y-80462500I250000J0D01*
G01*
G37*
%TD*%
%TO.C,C6*%
G36*
G01*
X94800000Y-84456250D02*
X94800000Y-85406250D01*
G75*
G02*
X94550000Y-85656250I-250000J0D01*
G01*
X94050000Y-85656250D01*
G75*
G02*
X93800000Y-85406250I0J250000D01*
G01*
X93800000Y-84456250D01*
G75*
G02*
X94050000Y-84206250I250000J0D01*
G01*
X94550000Y-84206250D01*
G75*
G02*
X94800000Y-84456250I0J-250000D01*
G01*
G37*
G36*
G01*
X96700000Y-84456250D02*
X96700000Y-85406250D01*
G75*
G02*
X96450000Y-85656250I-250000J0D01*
G01*
X95950000Y-85656250D01*
G75*
G02*
X95700000Y-85406250I0J250000D01*
G01*
X95700000Y-84456250D01*
G75*
G02*
X95950000Y-84206250I250000J0D01*
G01*
X96450000Y-84206250D01*
G75*
G02*
X96700000Y-84456250I0J-250000D01*
G01*
G37*
%TD*%
%TO.C,C5*%
G36*
G01*
X99535000Y-73840000D02*
X98585000Y-73840000D01*
G75*
G02*
X98335000Y-73590000I0J250000D01*
G01*
X98335000Y-73090000D01*
G75*
G02*
X98585000Y-72840000I250000J0D01*
G01*
X99535000Y-72840000D01*
G75*
G02*
X99785000Y-73090000I0J-250000D01*
G01*
X99785000Y-73590000D01*
G75*
G02*
X99535000Y-73840000I-250000J0D01*
G01*
G37*
G36*
G01*
X99535000Y-71940000D02*
X98585000Y-71940000D01*
G75*
G02*
X98335000Y-71690000I0J250000D01*
G01*
X98335000Y-71190000D01*
G75*
G02*
X98585000Y-70940000I250000J0D01*
G01*
X99535000Y-70940000D01*
G75*
G02*
X99785000Y-71190000I0J-250000D01*
G01*
X99785000Y-71690000D01*
G75*
G02*
X99535000Y-71940000I-250000J0D01*
G01*
G37*
%TD*%
%TO.C,C4*%
G36*
G01*
X82866250Y-66860000D02*
X81916250Y-66860000D01*
G75*
G02*
X81666250Y-66610000I0J250000D01*
G01*
X81666250Y-66110000D01*
G75*
G02*
X81916250Y-65860000I250000J0D01*
G01*
X82866250Y-65860000D01*
G75*
G02*
X83116250Y-66110000I0J-250000D01*
G01*
X83116250Y-66610000D01*
G75*
G02*
X82866250Y-66860000I-250000J0D01*
G01*
G37*
G36*
G01*
X82866250Y-68760000D02*
X81916250Y-68760000D01*
G75*
G02*
X81666250Y-68510000I0J250000D01*
G01*
X81666250Y-68010000D01*
G75*
G02*
X81916250Y-67760000I250000J0D01*
G01*
X82866250Y-67760000D01*
G75*
G02*
X83116250Y-68010000I0J-250000D01*
G01*
X83116250Y-68510000D01*
G75*
G02*
X82866250Y-68760000I-250000J0D01*
G01*
G37*
%TD*%
%TO.C,C3*%
G36*
G01*
X80512500Y-74455000D02*
X80512500Y-75405000D01*
G75*
G02*
X80262500Y-75655000I-250000J0D01*
G01*
X79762500Y-75655000D01*
G75*
G02*
X79512500Y-75405000I0J250000D01*
G01*
X79512500Y-74455000D01*
G75*
G02*
X79762500Y-74205000I250000J0D01*
G01*
X80262500Y-74205000D01*
G75*
G02*
X80512500Y-74455000I0J-250000D01*
G01*
G37*
G36*
G01*
X82412500Y-74455000D02*
X82412500Y-75405000D01*
G75*
G02*
X82162500Y-75655000I-250000J0D01*
G01*
X81662500Y-75655000D01*
G75*
G02*
X81412500Y-75405000I0J250000D01*
G01*
X81412500Y-74455000D01*
G75*
G02*
X81662500Y-74205000I250000J0D01*
G01*
X82162500Y-74205000D01*
G75*
G02*
X82412500Y-74455000I0J-250000D01*
G01*
G37*
%TD*%
%TO.C,C2*%
G36*
G01*
X86043750Y-63950000D02*
X86993750Y-63950000D01*
G75*
G02*
X87243750Y-64200000I0J-250000D01*
G01*
X87243750Y-64700000D01*
G75*
G02*
X86993750Y-64950000I-250000J0D01*
G01*
X86043750Y-64950000D01*
G75*
G02*
X85793750Y-64700000I0J250000D01*
G01*
X85793750Y-64200000D01*
G75*
G02*
X86043750Y-63950000I250000J0D01*
G01*
G37*
G36*
G01*
X86043750Y-62050000D02*
X86993750Y-62050000D01*
G75*
G02*
X87243750Y-62300000I0J-250000D01*
G01*
X87243750Y-62800000D01*
G75*
G02*
X86993750Y-63050000I-250000J0D01*
G01*
X86043750Y-63050000D01*
G75*
G02*
X85793750Y-62800000I0J250000D01*
G01*
X85793750Y-62300000D01*
G75*
G02*
X86043750Y-62050000I250000J0D01*
G01*
G37*
%TD*%
%TO.C,C1*%
G36*
G01*
X94931250Y-63050000D02*
X93981250Y-63050000D01*
G75*
G02*
X93731250Y-62800000I0J250000D01*
G01*
X93731250Y-62300000D01*
G75*
G02*
X93981250Y-62050000I250000J0D01*
G01*
X94931250Y-62050000D01*
G75*
G02*
X95181250Y-62300000I0J-250000D01*
G01*
X95181250Y-62800000D01*
G75*
G02*
X94931250Y-63050000I-250000J0D01*
G01*
G37*
G36*
G01*
X94931250Y-64950000D02*
X93981250Y-64950000D01*
G75*
G02*
X93731250Y-64700000I0J250000D01*
G01*
X93731250Y-64200000D01*
G75*
G02*
X93981250Y-63950000I250000J0D01*
G01*
X94931250Y-63950000D01*
G75*
G02*
X95181250Y-64200000I0J-250000D01*
G01*
X95181250Y-64700000D01*
G75*
G02*
X94931250Y-64950000I-250000J0D01*
G01*
G37*
%TD*%
M02*
