M48
; DRILL file {KiCad (5.1.10)-1} date 11/01/21 22:25:49
; FORMAT={-:-/ absolute / inch / decimal}
; #@! TF.CreationDate,2021-11-01T22:25:49+02:00
; #@! TF.GenerationSoftware,Kicad,Pcbnew,(5.1.10)-1
; #@! TF.FileFunction,NonPlated,1,2,NPTH
FMAT,2
INCH
T1C0.0256
T2C0.0689
T3C0.1570
%
G90
G05
T1
X3.9487Y-2.5273
X4.1763Y-2.5273
T2
X2.3625Y-3.7812
X2.3625Y-4.5312
X2.3625Y-5.2812
X2.7625Y-3.7812
X2.7625Y-4.5312
X2.7625Y-5.2812
X3.1125Y-3.7812
X3.1125Y-4.5312
X3.1125Y-5.2812
X3.5125Y-3.7812
X3.5125Y-4.5312
X3.5125Y-5.2812
X3.8625Y-3.7812
X3.8625Y-4.5312
X3.8625Y-5.2812
X4.2625Y-3.7812
X4.2625Y-4.5312
X4.2625Y-5.2812
X4.6125Y-3.7812
X4.6125Y-4.5312
X4.6125Y-5.2812
X5.0125Y-3.7812
X5.0125Y-4.5312
X5.0125Y-5.2812
T3
X2.5625Y-3.7812
X2.5625Y-4.5312
X2.5625Y-5.2812
X3.3125Y-3.7812
X3.3125Y-4.5312
X3.3125Y-5.2812
X4.0625Y-3.7812
X4.0625Y-4.5312
X4.0625Y-5.2812
X4.8125Y-3.7812
X4.8125Y-4.5312
X4.8125Y-5.2812
T0
M30
